<?xml version="1.0" encoding="utf-8"?>
<!-- Generator: Adobe Illustrator 22.1.0, SVG Export Plug-In . SVG Version: 6.00 Build 0)  -->
<svg fill="#888888" version="1.1"  xmlns="http://www.w3.org/2000/svg" xmlns:xlink="http://www.w3.org/1999/xlink" x="0px" y="0px"
	 viewBox="0 0 27 27" style="enable-background:new 0 0 27 27;" xml:space="preserve">
<path d="M19.3,17h-1.2l-0.4-0.4c1.5-1.8,2.4-4,2.4-6.5c0-5.5-4.5-10-10-10S0,4.5,0,10s4.5,10,10,10c2.5,0,4.8-0.9,6.5-2.4l0.4,0.4
	v1.2l7.7,7.7l2.3-2.3L19.3,17z M10,17c-3.8,0-6.9-3.1-6.9-6.9S6.2,3.1,10,3.1S17,6.2,17,10S13.9,17,10,17z"/>
</svg>
